<svg width="16" height="16" viewBox="0 0 16 16" fill="none" xmlns="http://www.w3.org/2000/svg">
<g clip-path="url(#clip0_1088_1001)">
<circle cx="8" cy="8" r="12" fill="white"/>
<path d="M8.08203 5.99805C8.08203 6.27799 8.02832 6.54004 7.9209 6.78418C7.81673 7.02507 7.6735 7.23665 7.49121 7.41895C7.31217 7.59798 7.10059 7.73958 6.85645 7.84375C6.6123 7.94792 6.35352 8 6.08008 8H1.33887V6.99902H6.08008C6.2168 6.99902 6.34538 6.97298 6.46582 6.9209C6.58952 6.86882 6.69694 6.7972 6.78809 6.70605C6.87923 6.61491 6.95085 6.50911 7.00293 6.38867C7.05501 6.26497 7.08105 6.13477 7.08105 5.99805C7.08105 5.86133 7.05501 5.73275 7.00293 5.6123C6.95085 5.49186 6.87923 5.38607 6.78809 5.29492C6.69694 5.20378 6.58952 5.13216 6.46582 5.08008C6.34538 5.02799 6.2168 5.00195 6.08008 5.00195H1.33887V4.00098H5.0791C5.21582 4.00098 5.3444 3.97493 5.46484 3.92285C5.58854 3.87077 5.69596 3.79915 5.78711 3.70801C5.87826 3.61686 5.94987 3.51107 6.00195 3.39062C6.05404 3.26693 6.08008 3.13672 6.08008 3C6.08008 2.86328 6.05404 2.7347 6.00195 2.61426C5.94987 2.49056 5.87826 2.38314 5.78711 2.29199C5.69596 2.20085 5.58854 2.12923 5.46484 2.07715C5.3444 2.02507 5.21582 1.99902 5.0791 1.99902H0.84082V8H-0.160156V0.998047H5.0791C5.35254 0.998047 5.61133 1.05176 5.85547 1.15918C6.09961 1.26335 6.3112 1.40658 6.49023 1.58887C6.67253 1.7679 6.81576 1.97949 6.91992 2.22363C7.02734 2.46777 7.08105 2.72656 7.08105 3C7.08105 3.21159 7.05013 3.41178 6.98828 3.60059C6.92643 3.78613 6.84342 3.95866 6.73926 4.11816C6.93457 4.18652 7.11361 4.28255 7.27637 4.40625C7.44238 4.52995 7.58398 4.67318 7.70117 4.83594C7.82161 4.9987 7.91439 5.17936 7.97949 5.37793C8.04785 5.57324 8.08203 5.77995 8.08203 5.99805Z" fill="#1F1F1F"/>
<path d="M14.8584 13.4805C14.8584 13.8288 14.7917 14.1559 14.6582 14.4619C14.528 14.7679 14.349 15.0348 14.1211 15.2627C13.8932 15.4906 13.6263 15.6712 13.3203 15.8047C13.0143 15.9349 12.6872 16 12.3389 16C12.1305 16 11.9287 15.9772 11.7334 15.9316C11.5413 15.8828 11.359 15.8161 11.1865 15.7314C11.014 15.6436 10.8529 15.5378 10.7031 15.4141C10.5566 15.2904 10.4248 15.152 10.3076 14.999C10.0765 15.305 9.78678 15.5492 9.43848 15.7314C9.09017 15.9105 8.70768 16 8.29102 16C7.94271 16 7.61556 15.9349 7.30957 15.8047C7.00358 15.6712 6.73665 15.4906 6.50879 15.2627C6.28092 15.0348 6.10026 14.7679 5.9668 14.4619C5.83659 14.1559 5.77148 13.8288 5.77148 13.4805V8.99805H6.76758V13.4805C6.76758 13.6921 6.80664 13.8906 6.88477 14.0762C6.96615 14.2585 7.0752 14.418 7.21191 14.5547C7.35189 14.6914 7.51302 14.8005 7.69531 14.8818C7.88086 14.96 8.07943 14.999 8.29102 14.999C8.49609 14.999 8.68815 14.9616 8.86719 14.8867C9.04948 14.8118 9.20736 14.7093 9.34082 14.5791C9.47754 14.4489 9.58659 14.2959 9.66797 14.1201C9.7526 13.9411 9.7998 13.7507 9.80957 13.5488V13.4805V8.99805H10.8203V13.4805C10.8203 13.6921 10.8594 13.8906 10.9375 14.0762C11.0189 14.2585 11.1279 14.418 11.2646 14.5547C11.4014 14.6914 11.5609 14.8005 11.7432 14.8818C11.9287 14.96 12.1273 14.999 12.3389 14.999C12.5472 14.999 12.7441 14.96 12.9297 14.8818C13.1152 14.8005 13.2764 14.6914 13.4131 14.5547C13.5531 14.418 13.6621 14.2585 13.7402 14.0762C13.8216 13.8906 13.8623 13.6921 13.8623 13.4805V8.99805H14.8584V13.4805Z" fill="#1F1F1F"/>
<circle cx="12" cy="4" r="3" fill="#1BC8BD"/>
</g>
<defs>
<clipPath id="clip0_1088_1001">
<rect width="16" height="16" fill="white"/>
</clipPath>
</defs>
</svg>
