<svg width="188" height="71" viewBox="0 0 188 71" fill="none" xmlns="http://www.w3.org/2000/svg">
<path d="M27 37.5C27 44.9558 20.9558 51 13.5 51C6.04416 51 0 44.9558 0 37.5C0 30.0442 6.04416 24 13.5 24C20.9558 24 27 30.0442 27 37.5Z" fill="#1BC8BD"/>
<path d="M74.625 64H60.2188C59.3438 64 58.5156 63.8333 57.7344 63.5C56.9635 63.1562 56.2865 62.6979 55.7031 62.125C55.1302 61.5417 54.6719 60.8646 54.3281 60.0938C53.9948 59.3125 53.8281 58.4792 53.8281 57.5938C53.8281 56.6458 54.0208 55.7604 54.4062 54.9375C54.7917 54.1042 55.3229 53.3906 56 52.7969C55.3229 52.2135 54.7917 51.5104 54.4062 50.6875C54.0208 49.8646 53.8281 48.9688 53.8281 48C53.8281 47.125 53.9948 46.2969 54.3281 45.5156C54.6719 44.7344 55.1302 44.0573 55.7031 43.4844C56.2865 42.901 56.9635 42.4427 57.7344 42.1094C58.5156 41.7656 59.3438 41.5938 60.2188 41.5938H74.625V44.7969H60.2188C59.7812 44.7969 59.3698 44.8802 58.9844 45.0469C58.599 45.2135 58.2604 45.4427 57.9688 45.7344C57.6771 46.026 57.4479 46.3698 57.2812 46.7656C57.1146 47.151 57.0312 47.5625 57.0312 48C57.0312 48.4375 57.1094 48.849 57.2656 49.2344C57.4323 49.6094 57.651 49.9427 57.9219 50.2344C58.2031 50.5156 58.526 50.7448 58.8906 50.9219C59.2656 51.099 59.6667 51.1927 60.0938 51.2031H60.2188H65.0312V54.4062H60.2188C59.7812 54.4062 59.3698 54.4896 58.9844 54.6562C58.599 54.8229 58.2604 55.0521 57.9688 55.3438C57.6771 55.6354 57.4479 55.974 57.2812 56.3594C57.1146 56.7448 57.0312 57.1562 57.0312 57.5938C57.0312 58.0312 57.1146 58.4479 57.2812 58.8438C57.4479 59.2292 57.6771 59.5677 57.9688 59.8594C58.2604 60.151 58.599 60.3802 58.9844 60.5469C59.3698 60.7135 59.7812 60.7969 60.2188 60.7969H71.4219V54.4062H68.2188V51.2031H77.8281V54.4062H74.625V64Z" fill="#1F1F1F"/>
<path d="M185.965 23.0078C185.965 23.9714 185.783 24.8828 185.418 25.7422C185.053 26.5885 184.552 27.3307 183.914 27.9688C183.289 28.5938 182.547 29.0885 181.688 29.4531C180.841 29.8177 179.936 30 178.973 30H161.961V25.9961H178.973C179.376 25.9961 179.76 25.918 180.125 25.7617C180.49 25.6055 180.809 25.3906 181.082 25.1172C181.355 24.8438 181.57 24.5312 181.727 24.1797C181.883 23.8151 181.961 23.4245 181.961 23.0078C181.961 22.6042 181.883 22.2201 181.727 21.8555C181.57 21.4909 181.355 21.1719 181.082 20.8984C180.809 20.625 180.49 20.4102 180.125 20.2539C179.76 20.0846 179.376 20 178.973 20H167.957C167.124 20 166.342 19.8438 165.613 19.5312C164.884 19.2188 164.246 18.7956 163.699 18.2617C163.165 17.7148 162.742 17.0768 162.43 16.3477C162.117 15.6185 161.961 14.8372 161.961 14.0039C161.961 13.1706 162.117 12.3893 162.43 11.6602C162.742 10.931 163.165 10.2995 163.699 9.76562C164.246 9.21875 164.884 8.78906 165.613 8.47656C166.342 8.16406 167.124 8.00781 167.957 8.00781H183.973V11.9922H167.957C167.397 11.9922 166.922 12.1875 166.531 12.5781C166.154 12.9557 165.965 13.431 165.965 14.0039C165.965 14.5638 166.154 15.0391 166.531 15.4297C166.922 15.8073 167.397 15.9961 167.957 15.9961H178.973C179.936 15.9961 180.841 16.1784 181.688 16.543C182.547 16.9076 183.289 17.4089 183.914 18.0469C184.552 18.6849 185.053 19.4271 185.418 20.2734C185.783 21.1198 185.965 22.0312 185.965 23.0078Z" fill="#1F1F1F"/>
<path d="M159.07 15C159.07 15.9766 158.888 16.888 158.523 17.7344C158.159 18.5807 157.658 19.3229 157.02 19.9609C156.395 20.5859 155.652 21.0807 154.793 21.4453C153.947 21.8099 153.042 21.9922 152.078 21.9922H136.746C137.033 22.5781 137.391 23.1185 137.82 23.6133C138.25 24.1081 138.732 24.5312 139.266 24.8828C139.799 25.2344 140.379 25.5078 141.004 25.7031C141.642 25.8984 142.306 25.9961 142.996 25.9961H156.082V30H142.996C141.486 29.987 140.066 29.694 138.738 29.1211C137.41 28.5352 136.251 27.7474 135.262 26.7578C134.285 25.7552 133.51 24.5898 132.938 23.2617C132.365 21.9336 132.078 20.5143 132.078 19.0039C132.078 17.4935 132.365 16.0742 132.938 14.7461C133.51 13.418 134.285 12.2591 135.262 11.2695C136.251 10.2669 137.41 9.47917 138.738 8.90625C140.066 8.32031 141.486 8.02083 142.996 8.00781H152.078C153.042 8.00781 153.947 8.1901 154.793 8.55469C155.652 8.91927 156.395 9.42057 157.02 10.0586C157.658 10.6836 158.159 11.4193 158.523 12.2656C158.888 13.112 159.07 14.0234 159.07 15ZM152.078 18.0078C152.482 18.0078 152.866 17.9297 153.23 17.7734C153.595 17.6172 153.914 17.4023 154.188 17.1289C154.461 16.8555 154.676 16.5365 154.832 16.1719C154.988 15.8073 155.066 15.4167 155.066 15C155.066 14.5964 154.988 14.2122 154.832 13.8477C154.676 13.4831 154.461 13.1641 154.188 12.8906C153.914 12.6172 153.595 12.4023 153.23 12.2461C152.866 12.0768 152.482 11.9922 152.078 11.9922H142.996C142.111 11.9922 141.277 12.1484 140.496 12.4609C139.728 12.7734 139.038 13.2031 138.426 13.75C137.827 14.2839 137.326 14.9219 136.922 15.6641C136.531 16.3932 136.277 17.1745 136.16 18.0078H152.078Z" fill="#1F1F1F"/>
<path d="M116.59 30H112.586V11.9922H106.59V8.00781H112.586V0H116.59V8.00781H130.594V11.9922H116.59V30Z" fill="#1F1F1F"/>
<path d="M103.094 30.9961C103.094 31.9727 102.911 32.8841 102.547 33.7305C102.182 34.5768 101.681 35.319 101.043 35.957C100.418 36.5951 99.6758 37.0964 98.8164 37.4609C97.9701 37.8255 97.0651 38.0078 96.1016 38.0078H80.1055V34.0039H96.1016C96.5052 34.0039 96.8893 33.9258 97.2539 33.7695C97.6185 33.6133 97.9375 33.3984 98.2109 33.125C98.4844 32.8516 98.6992 32.5326 98.8555 32.168C99.0117 31.8034 99.0898 31.4128 99.0898 30.9961V30H88.0938C86.5833 30 85.1641 29.7135 83.8359 29.1406C82.5078 28.5547 81.349 27.7669 80.3594 26.7773C79.3828 25.7747 78.6081 24.6094 78.0352 23.2812C77.4622 21.9401 77.1758 20.5143 77.1758 19.0039V8.00781H81.1797V19.0039C81.1797 19.9674 81.3555 20.8724 81.707 21.7188C82.0716 22.5521 82.5664 23.2878 83.1914 23.9258C83.8164 24.5508 84.5456 25.0521 85.3789 25.4297C86.2253 25.7943 87.1302 25.9831 88.0938 25.9961H99.0898V8.00781H103.094V30.9961Z" fill="#1F1F1F"/>
<path d="M73.3281 21.9922C73.3281 23.112 73.1133 24.1602 72.6836 25.1367C72.2669 26.1003 71.694 26.9466 70.9648 27.6758C70.2487 28.3919 69.4023 28.9583 68.4258 29.375C67.4492 29.7917 66.4141 30 65.3203 30H46.3555V25.9961H65.3203C65.8672 25.9961 66.3815 25.8919 66.8633 25.6836C67.3581 25.4753 67.7878 25.1888 68.1523 24.8242C68.5169 24.4596 68.8034 24.0365 69.0117 23.5547C69.2201 23.0599 69.3242 22.5391 69.3242 21.9922C69.3242 21.4453 69.2201 20.931 69.0117 20.4492C68.8034 19.9674 68.5169 19.5443 68.1523 19.1797C67.7878 18.8151 67.3581 18.5286 66.8633 18.3203C66.3815 18.112 65.8672 18.0078 65.3203 18.0078H46.3555V14.0039H61.3164C61.8633 14.0039 62.3776 13.8997 62.8594 13.6914C63.3542 13.4831 63.7839 13.1966 64.1484 12.832C64.513 12.4674 64.7995 12.0443 65.0078 11.5625C65.2161 11.0677 65.3203 10.5469 65.3203 10C65.3203 9.45312 65.2161 8.9388 65.0078 8.45703C64.7995 7.96224 64.513 7.53255 64.1484 7.16797C63.7839 6.80339 63.3542 6.51693 62.8594 6.30859C62.3776 6.10026 61.8633 5.99609 61.3164 5.99609H44.3633V30H40.3594V1.99219H61.3164C62.4102 1.99219 63.4453 2.20703 64.4219 2.63672C65.3984 3.05339 66.2448 3.6263 66.9609 4.35547C67.6901 5.07161 68.263 5.91797 68.6797 6.89453C69.1094 7.87109 69.3242 8.90625 69.3242 10C69.3242 10.8464 69.2005 11.6471 68.9531 12.4023C68.7057 13.1445 68.3737 13.8346 67.957 14.4727C68.7383 14.7461 69.4544 15.1302 70.1055 15.625C70.7695 16.1198 71.3359 16.6927 71.8047 17.3438C72.2865 17.9948 72.6576 18.7174 72.918 19.5117C73.1914 20.293 73.3281 21.1198 73.3281 21.9922Z" fill="#1F1F1F"/>
<path fill-rule="evenodd" clip-rule="evenodd" d="M32 61L32 13L33 13L33 61L32 61Z" fill="#1F1F1F"/>
<path d="M187.762 60.0039C187.762 61.5143 187.475 62.9336 186.902 64.2617C186.329 65.5898 185.548 66.7552 184.559 67.7578C183.569 68.7474 182.41 69.5352 181.082 70.1211C179.754 70.694 178.335 70.987 176.824 71H161.824V41H165.828V66.9961H176.824C177.788 66.9961 178.686 66.8138 179.52 66.4492C180.366 66.0716 181.102 65.5703 181.727 64.9453C182.352 64.3073 182.846 63.5651 183.211 62.7188C183.576 61.8724 183.758 60.9674 183.758 60.0039C183.758 59.0404 183.576 58.1354 183.211 57.2891C182.846 56.4427 182.352 55.707 181.727 55.082C181.102 54.444 180.366 53.9427 179.52 53.5781C178.686 53.2005 177.788 53.0052 176.824 52.9922H167.84V49.0078H176.824C178.335 49.0078 179.754 49.3008 181.082 49.8867C182.41 50.4596 183.569 51.2474 184.559 52.25C185.548 53.2396 186.329 54.4049 186.902 55.7461C187.475 57.0742 187.762 58.4935 187.762 60.0039Z" fill="#1F1F1F"/>
<path d="M157.898 56C157.898 56.9766 157.716 57.888 157.352 58.7344C156.987 59.5807 156.486 60.3229 155.848 60.9609C155.223 61.5859 154.48 62.0807 153.621 62.4453C152.775 62.8099 151.87 62.9922 150.906 62.9922H135.574C135.861 63.5781 136.219 64.1185 136.648 64.6133C137.078 65.1081 137.56 65.5312 138.094 65.8828C138.628 66.2344 139.207 66.5078 139.832 66.7031C140.47 66.8984 141.134 66.9961 141.824 66.9961H154.91V71H141.824C140.314 70.987 138.895 70.694 137.566 70.1211C136.238 69.5352 135.079 68.7474 134.09 67.7578C133.113 66.7552 132.339 65.5898 131.766 64.2617C131.193 62.9336 130.906 61.5143 130.906 60.0039C130.906 58.4935 131.193 57.0742 131.766 55.7461C132.339 54.418 133.113 53.2591 134.09 52.2695C135.079 51.2669 136.238 50.4792 137.566 49.9062C138.895 49.3203 140.314 49.0208 141.824 49.0078H150.906C151.87 49.0078 152.775 49.1901 153.621 49.5547C154.48 49.9193 155.223 50.4206 155.848 51.0586C156.486 51.6836 156.987 52.4193 157.352 53.2656C157.716 54.112 157.898 55.0234 157.898 56ZM150.906 59.0078C151.31 59.0078 151.694 58.9297 152.059 58.7734C152.423 58.6172 152.742 58.4023 153.016 58.1289C153.289 57.8555 153.504 57.5365 153.66 57.1719C153.816 56.8073 153.895 56.4167 153.895 56C153.895 55.5964 153.816 55.2122 153.66 54.8477C153.504 54.4831 153.289 54.1641 153.016 53.8906C152.742 53.6172 152.423 53.4023 152.059 53.2461C151.694 53.0768 151.31 52.9922 150.906 52.9922H141.824C140.939 52.9922 140.105 53.1484 139.324 53.4609C138.556 53.7734 137.866 54.2031 137.254 54.75C136.655 55.2839 136.154 55.9219 135.75 56.6641C135.359 57.3932 135.105 58.1745 134.988 59.0078H150.906Z" fill="#1F1F1F"/>
<path d="M126.434 60.9219C126.434 62.3151 126.167 63.6237 125.633 64.8477C125.112 66.0716 124.396 67.1393 123.484 68.0508C122.573 68.9622 121.505 69.6849 120.281 70.2188C119.057 70.7396 117.749 71 116.355 71C115.522 71 114.715 70.9089 113.934 70.7266C113.165 70.5312 112.436 70.2643 111.746 69.9258C111.056 69.5742 110.411 69.151 109.812 68.6562C109.227 68.1615 108.699 67.6081 108.23 66.9961C107.306 68.2201 106.147 69.1966 104.754 69.9258C103.361 70.6419 101.831 71 100.164 71C98.7708 71 97.4622 70.7396 96.2383 70.2188C95.0143 69.6849 93.9466 68.9622 93.0352 68.0508C92.1237 67.1393 91.401 66.0716 90.8672 64.8477C90.3464 63.6237 90.0859 62.3151 90.0859 60.9219V42.9922H94.0703V60.9219C94.0703 61.7682 94.2266 62.5625 94.5391 63.3047C94.8646 64.0339 95.3008 64.6719 95.8477 65.2188C96.4076 65.7656 97.0521 66.2018 97.7812 66.5273C98.5234 66.8398 99.3177 66.9961 100.164 66.9961C100.984 66.9961 101.753 66.8464 102.469 66.5469C103.198 66.2474 103.829 65.8372 104.363 65.3164C104.91 64.7956 105.346 64.1836 105.672 63.4805C106.01 62.7643 106.199 62.0026 106.238 61.1953V60.9219V42.9922H110.281V60.9219C110.281 61.7682 110.438 62.5625 110.75 63.3047C111.076 64.0339 111.512 64.6719 112.059 65.2188C112.605 65.7656 113.243 66.2018 113.973 66.5273C114.715 66.8398 115.509 66.9961 116.355 66.9961C117.189 66.9961 117.977 66.8398 118.719 66.5273C119.461 66.2018 120.105 65.7656 120.652 65.2188C121.212 64.6719 121.648 64.0339 121.961 63.3047C122.286 62.5625 122.449 61.7682 122.449 60.9219V42.9922H126.434V60.9219Z" fill="#1F1F1F"/>
</svg>
