<svg width="700" height="707" viewBox="0 0 700 707" fill="none" xmlns="http://www.w3.org/2000/svg">
<rect width="700" height="707" fill="#C7541A"/>
<path d="M159.817 358.69C159.817 379.903 142.621 397.099 121.408 397.099C100.196 397.099 83 379.903 83 358.69C83 337.478 100.196 320.282 121.408 320.282C142.621 320.282 159.817 337.478 159.817 358.69Z" fill="#1BC8BD"/>
<path d="M295.314 434.084H254.327C251.838 434.084 249.482 433.61 247.259 432.662C245.066 431.684 243.139 430.38 241.48 428.75C239.85 427.09 238.546 425.164 237.568 422.971C236.619 420.748 236.145 418.377 236.145 415.858C236.145 413.161 236.694 410.642 237.79 408.301C238.887 405.93 240.398 403.9 242.324 402.211C240.398 400.551 238.887 398.551 237.79 396.209C236.694 393.868 236.145 391.32 236.145 388.563C236.145 386.074 236.619 383.718 237.568 381.495C238.546 379.272 239.85 377.346 241.48 375.716C243.139 374.056 245.066 372.752 247.259 371.804C249.482 370.826 251.838 370.337 254.327 370.337H295.314V379.45H254.327C253.082 379.45 251.912 379.687 250.815 380.162C249.719 380.636 248.755 381.288 247.926 382.117C247.096 382.947 246.444 383.925 245.97 385.051C245.495 386.148 245.258 387.319 245.258 388.563C245.258 389.808 245.481 390.979 245.925 392.075C246.399 393.142 247.022 394.091 247.792 394.92C248.592 395.72 249.511 396.372 250.548 396.876C251.615 397.38 252.756 397.647 253.971 397.676H254.327H268.019V406.79H254.327C253.082 406.79 251.912 407.027 250.815 407.501C249.719 407.975 248.755 408.627 247.926 409.457C247.096 410.287 246.444 411.25 245.97 412.346C245.495 413.443 245.258 414.614 245.258 415.858C245.258 417.103 245.495 418.288 245.97 419.415C246.444 420.511 247.096 421.474 247.926 422.304C248.755 423.134 249.719 423.786 250.815 424.26C251.912 424.734 253.082 424.971 254.327 424.971H286.201V406.79H277.088V397.676H304.427V406.79H295.314V434.084Z" fill="#1F1F1F"/>
<path d="M612.083 317.459C612.083 320.2 611.564 322.793 610.527 325.238C609.49 327.646 608.064 329.758 606.248 331.573C604.47 333.351 602.359 334.759 599.914 335.796C597.506 336.834 594.931 337.352 592.19 337.352H543.79V325.961H592.19C593.338 325.961 594.431 325.738 595.468 325.294C596.506 324.849 597.413 324.238 598.191 323.46C598.969 322.682 599.58 321.793 600.025 320.793C600.469 319.756 600.692 318.644 600.692 317.459C600.692 316.31 600.469 315.218 600.025 314.18C599.58 313.143 598.969 312.235 598.191 311.458C597.413 310.68 596.506 310.068 595.468 309.624C594.431 309.142 593.338 308.901 592.19 308.901H560.85C558.479 308.901 556.256 308.457 554.181 307.568C552.107 306.679 550.292 305.475 548.736 303.956C547.217 302.4 546.013 300.585 545.124 298.51C544.235 296.436 543.79 294.213 543.79 291.842C543.79 289.471 544.235 287.249 545.124 285.174C546.013 283.099 547.217 281.303 548.736 279.784C550.292 278.228 552.107 277.006 554.181 276.116C556.256 275.227 558.479 274.783 560.85 274.783H606.415V286.119H560.85C559.257 286.119 557.905 286.674 556.793 287.786C555.719 288.86 555.182 290.212 555.182 291.842C555.182 293.435 555.719 294.787 556.793 295.899C557.905 296.973 559.257 297.51 560.85 297.51H592.19C594.931 297.51 597.506 298.029 599.914 299.066C602.359 300.103 604.47 301.529 606.248 303.345C608.064 305.16 609.49 307.271 610.527 309.679C611.564 312.087 612.083 314.68 612.083 317.459Z" fill="#1F1F1F"/>
<path d="M535.566 294.676C535.566 297.454 535.048 300.048 534.011 302.456C532.973 304.864 531.547 306.975 529.732 308.79C527.954 310.568 525.842 311.976 523.397 313.013C520.989 314.051 518.414 314.569 515.673 314.569H472.052C472.867 316.236 473.886 317.774 475.109 319.181C476.331 320.589 477.702 321.793 479.221 322.793C480.74 323.794 482.388 324.572 484.166 325.127C485.981 325.683 487.871 325.961 489.834 325.961H527.065V337.352H489.834C485.537 337.315 481.499 336.482 477.72 334.852C473.942 333.185 470.645 330.943 467.829 328.128C465.051 325.275 462.847 321.96 461.217 318.181C459.587 314.403 458.772 310.365 458.772 306.067C458.772 301.77 459.587 297.732 461.217 293.954C462.847 290.175 465.051 286.878 467.829 284.063C470.645 281.21 473.942 278.969 477.72 277.339C481.499 275.672 485.537 274.82 489.834 274.783H515.673C518.414 274.783 520.989 275.301 523.397 276.339C525.842 277.376 527.954 278.802 529.732 280.617C531.547 282.396 532.973 284.489 534.011 286.897C535.048 289.305 535.566 291.898 535.566 294.676ZM515.673 303.234C516.822 303.234 517.914 303.011 518.952 302.567C519.989 302.122 520.897 301.511 521.674 300.733C522.452 299.955 523.064 299.047 523.508 298.01C523.953 296.973 524.175 295.862 524.175 294.676C524.175 293.528 523.953 292.435 523.508 291.398C523.064 290.36 522.452 289.453 521.674 288.675C520.897 287.897 519.989 287.286 518.952 286.841C517.914 286.359 516.822 286.119 515.673 286.119H489.834C487.315 286.119 484.944 286.563 482.721 287.452C480.536 288.341 478.572 289.564 476.831 291.12C475.127 292.639 473.701 294.454 472.553 296.565C471.441 298.64 470.719 300.863 470.385 303.234H515.673Z" fill="#1F1F1F"/>
<path d="M414.706 337.352H403.315V286.119H386.256V274.783H403.315V252H414.706V274.783H454.548V286.119H414.706V337.352Z" fill="#1F1F1F"/>
<path d="M376.309 340.186C376.309 342.964 375.79 345.558 374.753 347.966C373.716 350.374 372.29 352.485 370.474 354.3C368.696 356.116 366.585 357.542 364.14 358.579C361.732 359.616 359.157 360.135 356.416 360.135H310.906V348.744H356.416C357.564 348.744 358.657 348.521 359.694 348.077C360.732 347.632 361.639 347.021 362.417 346.243C363.195 345.465 363.806 344.557 364.251 343.52C364.695 342.483 364.918 341.372 364.918 340.186V337.352H333.633C329.336 337.352 325.298 336.537 321.519 334.907C317.741 333.24 314.444 330.999 311.628 328.183C308.85 325.331 306.646 322.015 305.016 318.237C303.386 314.421 302.571 310.365 302.571 306.067V274.783H313.962V306.067C313.962 308.809 314.462 311.383 315.462 313.791C316.5 316.162 317.907 318.255 319.685 320.071C321.464 321.849 323.538 323.275 325.909 324.349C328.317 325.387 330.892 325.924 333.633 325.961H364.918V274.783H376.309V340.186Z" fill="#1F1F1F"/>
<path d="M291.624 314.569C291.624 317.755 291.013 320.737 289.79 323.516C288.605 326.257 286.975 328.665 284.9 330.74C282.863 332.777 280.455 334.389 277.676 335.574C274.898 336.759 271.953 337.352 268.841 337.352H214.885V325.961H268.841C270.397 325.961 271.86 325.664 273.231 325.072C274.639 324.479 275.861 323.664 276.898 322.627C277.936 321.589 278.751 320.385 279.343 319.015C279.936 317.607 280.232 316.125 280.232 314.569C280.232 313.013 279.936 311.55 279.343 310.179C278.751 308.809 277.936 307.605 276.898 306.568C275.861 305.53 274.639 304.715 273.231 304.123C271.86 303.53 270.397 303.233 268.841 303.233H214.885V291.842H257.45C259.006 291.842 260.469 291.546 261.84 290.953C263.247 290.36 264.47 289.545 265.507 288.508C266.544 287.471 267.359 286.267 267.952 284.896C268.545 283.488 268.841 282.007 268.841 280.451C268.841 278.895 268.545 277.432 267.952 276.061C267.359 274.653 266.544 273.431 265.507 272.393C264.47 271.356 263.247 270.541 261.84 269.948C260.469 269.356 259.006 269.059 257.45 269.059H209.217V337.352H197.825V257.668H257.45C260.561 257.668 263.507 258.279 266.285 259.502C269.063 260.687 271.471 262.317 273.509 264.392C275.583 266.429 277.213 268.837 278.399 271.615C279.621 274.394 280.232 277.339 280.232 280.451C280.232 282.859 279.881 285.137 279.177 287.286C278.473 289.397 277.528 291.361 276.343 293.176C278.565 293.954 280.603 295.047 282.455 296.454C284.344 297.862 285.956 299.492 287.29 301.344C288.66 303.196 289.716 305.252 290.457 307.512C291.235 309.735 291.624 312.087 291.624 314.569Z" fill="#1F1F1F"/>
<path fill-rule="evenodd" clip-rule="evenodd" d="M174.042 425.549L174.042 288.986L176.887 288.986L176.887 425.549L174.042 425.549Z" fill="#1F1F1F"/>
<path d="M617.195 422.715C617.195 427.013 616.38 431.051 614.75 434.829C613.12 438.608 610.898 441.923 608.082 444.776C605.267 447.591 601.97 449.832 598.191 451.5C594.413 453.13 590.375 453.963 586.077 454H543.401V368.648H554.793V442.609H586.077C588.819 442.609 591.375 442.09 593.746 441.053C596.154 439.978 598.247 438.552 600.025 436.774C601.803 434.959 603.211 432.847 604.248 430.439C605.285 428.031 605.804 425.457 605.804 422.715C605.804 419.974 605.285 417.399 604.248 414.991C603.211 412.584 601.803 410.49 600.025 408.712C598.247 406.897 596.154 405.471 593.746 404.434C591.375 403.359 588.819 402.804 586.077 402.767H560.516V391.431H586.077C590.375 391.431 594.413 392.264 598.191 393.931C601.97 395.561 605.267 397.803 608.082 400.655C610.898 403.47 613.12 406.786 614.75 410.602C616.38 414.38 617.195 418.418 617.195 422.715Z" fill="#1F1F1F"/>
<path d="M532.232 411.324C532.232 414.102 531.714 416.696 530.677 419.103C529.639 421.511 528.213 423.623 526.398 425.438C524.62 427.216 522.508 428.624 520.063 429.661C517.655 430.699 515.081 431.217 512.339 431.217H468.718C469.533 432.884 470.552 434.422 471.775 435.829C472.997 437.237 474.368 438.441 475.887 439.441C477.406 440.441 479.054 441.219 480.832 441.775C482.647 442.331 484.537 442.609 486.5 442.609H523.731V454H486.5C482.203 453.963 478.165 453.129 474.386 451.499C470.608 449.832 467.311 447.591 464.495 444.776C461.717 441.923 459.513 438.608 457.883 434.829C456.253 431.051 455.438 427.013 455.438 422.715C455.438 418.418 456.253 414.38 457.883 410.602C459.513 406.823 461.717 403.526 464.495 400.711C467.311 397.858 470.608 395.617 474.386 393.987C478.165 392.32 482.203 391.468 486.5 391.431H512.339C515.081 391.431 517.655 391.949 520.063 392.987C522.508 394.024 524.62 395.45 526.398 397.265C528.213 399.043 529.639 401.137 530.677 403.544C531.714 405.952 532.232 408.546 532.232 411.324ZM512.339 419.881C513.488 419.881 514.58 419.659 515.618 419.215C516.655 418.77 517.563 418.159 518.34 417.381C519.118 416.603 519.73 415.695 520.174 414.658C520.619 413.621 520.841 412.509 520.841 411.324C520.841 410.176 520.619 409.083 520.174 408.045C519.73 407.008 519.118 406.101 518.34 405.323C517.563 404.545 516.655 403.933 515.618 403.489C514.58 403.007 513.488 402.767 512.339 402.767H486.5C483.981 402.767 481.61 403.211 479.387 404.1C477.202 404.989 475.238 406.212 473.497 407.768C471.793 409.286 470.367 411.102 469.219 413.213C468.107 415.288 467.385 417.511 467.051 419.881H512.339Z" fill="#1F1F1F"/>
<path d="M442.713 425.327C442.713 429.291 441.953 433.014 440.434 436.496C438.953 439.978 436.915 443.016 434.322 445.609C431.729 448.202 428.691 450.259 425.209 451.777C421.727 453.259 418.004 454 414.04 454C411.669 454 409.372 453.741 407.149 453.222C404.964 452.666 402.889 451.907 400.926 450.944C398.962 449.944 397.129 448.74 395.424 447.332C393.757 445.924 392.257 444.35 390.924 442.609C388.293 446.091 384.996 448.869 381.032 450.944C377.069 452.981 372.716 454 367.974 454C364.01 454 360.287 453.259 356.805 451.777C353.323 450.259 350.285 448.202 347.692 445.609C345.099 443.016 343.043 439.978 341.524 436.496C340.042 433.014 339.301 429.291 339.301 425.327V374.316H350.637V425.327C350.637 427.735 351.081 429.995 351.97 432.106C352.897 434.181 354.138 435.996 355.694 437.552C357.286 439.108 359.12 440.349 361.195 441.275C363.306 442.164 365.566 442.609 367.974 442.609C370.308 442.609 372.494 442.183 374.531 441.331C376.606 440.479 378.402 439.312 379.921 437.83C381.477 436.348 382.718 434.607 383.644 432.606C384.607 430.569 385.144 428.402 385.256 426.105V425.327V374.316H396.758V425.327C396.758 427.735 397.203 429.995 398.092 432.106C399.018 434.181 400.259 435.996 401.815 437.552C403.371 439.108 405.186 440.349 407.26 441.275C409.372 442.164 411.632 442.609 414.04 442.609C416.411 442.609 418.652 442.164 420.763 441.275C422.875 440.349 424.709 439.108 426.265 437.552C427.858 435.996 429.099 434.181 429.988 432.106C430.914 429.995 431.377 427.735 431.377 425.327V374.316H442.713V425.327Z" fill="#1F1F1F"/>
</svg>
